<svg width="24" height="24" viewBox="0 0 24 24" fill="none" xmlns="http://www.w3.org/2000/svg">
<circle cx="12" cy="12" r="12" fill="#BDBDBD" fill-opacity="0.4"/>
<path d="M16.4998 9.3749C16.4011 9.37433 16.3033 9.39325 16.2119 9.43057C16.1205 9.4679 16.0374 9.52289 15.9673 9.5924L12.5323 13.0349C12.4626 13.1052 12.3797 13.161 12.2883 13.1991C12.1969 13.2371 12.0988 13.2567 11.9998 13.2567C11.9008 13.2567 11.8028 13.2371 11.7114 13.1991C11.62 13.161 11.5371 13.1052 11.4673 13.0349L8.03233 9.5924C7.89111 9.45117 7.69956 9.37183 7.49983 9.37183C7.30011 9.37183 7.10856 9.45117 6.96733 9.5924C6.82611 9.73363 6.74677 9.92518 6.74677 10.1249C6.74677 10.2238 6.76624 10.3217 6.80409 10.4131C6.84193 10.5045 6.89741 10.5875 6.96733 10.6574L10.4098 14.0924C10.8373 14.5031 11.4071 14.7324 11.9998 14.7324C12.5926 14.7324 13.1624 14.5031 13.5898 14.0924L17.0323 10.6574C17.1026 10.5877 17.1584 10.5047 17.1965 10.4133C17.2346 10.3219 17.2542 10.2239 17.2542 10.1249C17.2542 10.0259 17.2346 9.92786 17.1965 9.83647C17.1584 9.74508 17.1026 9.66212 17.0323 9.5924C16.9623 9.52289 16.8791 9.4679 16.7878 9.43057C16.6964 9.39325 16.5985 9.37433 16.4998 9.3749Z" fill="#676767"/>
</svg>
