<svg width="24" height="24" viewBox="0 0 24 24" fill="none" xmlns="http://www.w3.org/2000/svg">
<circle cx="12" cy="12" r="12" transform="matrix(1 0 0 -1 0 24)" fill="#BDBDBD" fill-opacity="0.4"/>
<path d="M16.4998 14.6251C16.4011 14.6257 16.3033 14.6067 16.2119 14.5694C16.1205 14.5321 16.0374 14.4771 15.9673 14.4076L12.5323 10.9651C12.4626 10.8948 12.3797 10.839 12.2883 10.8009C12.1969 10.7629 12.0988 10.7433 11.9998 10.7433C11.9008 10.7433 11.8028 10.7629 11.7114 10.8009C11.62 10.839 11.5371 10.8948 11.4673 10.9651L8.03233 14.4076C7.89111 14.5488 7.69956 14.6282 7.49983 14.6282C7.30011 14.6282 7.10856 14.5488 6.96733 14.4076C6.82611 14.2664 6.74677 14.0748 6.74677 13.8751C6.74677 13.7762 6.76624 13.6783 6.80409 13.5869C6.84193 13.4955 6.89741 13.4125 6.96733 13.3426L10.4098 9.90761C10.8373 9.49693 11.4071 9.26758 11.9998 9.26758C12.5926 9.26758 13.1624 9.49693 13.5898 9.90761L17.0323 13.3426C17.1026 13.4123 17.1584 13.4953 17.1965 13.5867C17.2346 13.6781 17.2542 13.7761 17.2542 13.8751C17.2542 13.9741 17.2346 14.0721 17.1965 14.1635C17.1584 14.2549 17.1026 14.3379 17.0323 14.4076C16.9623 14.4771 16.8791 14.5321 16.7878 14.5694C16.6964 14.6067 16.5985 14.6257 16.4998 14.6251Z" fill="#676767"/>
</svg>
