<svg width="24" height="24" viewBox="0 0 24 24" fill="none" xmlns="http://www.w3.org/2000/svg">
<circle cx="12" cy="12" r="12" transform="rotate(-90 12 12)" fill="#BDBDBD" fill-opacity="0.4"/>
<path d="M9.37502 7.50035C9.37445 7.59905 9.39337 7.6969 9.4307 7.78828C9.46802 7.87966 9.52301 7.96277 9.59252 8.03285L13.035 11.4678C13.1053 11.5376 13.1611 11.6205 13.1992 11.7119C13.2373 11.8033 13.2569 11.9013 13.2569 12.0003C13.2569 12.0994 13.2373 12.1974 13.1992 12.2888C13.1611 12.3802 13.1053 12.4631 13.035 12.5328L9.59252 15.9678C9.4513 16.1091 9.37196 16.3006 9.37196 16.5003C9.37196 16.7001 9.4513 16.8916 9.59252 17.0328C9.73375 17.1741 9.9253 17.2534 10.125 17.2534C10.2239 17.2534 10.3218 17.2339 10.4132 17.1961C10.5046 17.1582 10.5876 17.1028 10.6575 17.0328L14.0925 13.5903C14.5032 13.1629 14.7325 12.5931 14.7325 12.0003C14.7325 11.4076 14.5032 10.8378 14.0925 10.4103L10.6575 6.96785C10.5878 6.89755 10.5048 6.84176 10.4135 6.80368C10.3221 6.7656 10.224 6.746 10.125 6.746C10.026 6.746 9.92799 6.7656 9.83659 6.80368C9.7452 6.84176 9.66225 6.89755 9.59252 6.96785C9.52301 7.03793 9.46802 7.12104 9.4307 7.21242C9.39337 7.3038 9.37445 7.40164 9.37502 7.50035Z" fill="#676767"/>
</svg>
