<svg width="19" height="19" viewBox="0 0 19 19" fill="none" xmlns="http://www.w3.org/2000/svg">
<g clip-path="url(#clip0_194_2404)">
<path d="M12.6666 6.33335C12.5182 6.18494 12.3169 6.10156 12.1069 6.10156C11.897 6.10156 11.6957 6.18494 11.5472 6.33335L9.49997 8.3806L7.45273 6.33335C7.30342 6.18914 7.10344 6.10935 6.89587 6.11115C6.6883 6.11296 6.48974 6.19621 6.34296 6.343C6.19618 6.48978 6.11292 6.68834 6.11111 6.89591C6.10931 7.10348 6.18911 7.30346 6.33331 7.45277L8.38056 9.50002L6.33331 11.5473C6.18911 11.6966 6.10931 11.8966 6.11111 12.1041C6.11292 12.3117 6.19618 12.5103 6.34296 12.657C6.48974 12.8038 6.6883 12.8871 6.89587 12.8889C7.10344 12.8907 7.30342 12.8109 7.45273 12.6667L9.49997 10.6194L11.5472 12.6667C11.6965 12.8109 11.8965 12.8907 12.1041 12.8889C12.3117 12.8871 12.5102 12.8038 12.657 12.657C12.8038 12.5103 12.887 12.3117 12.8888 12.1041C12.8906 11.8966 12.8108 11.6966 12.6666 11.5473L10.6194 9.50002L12.6666 7.45277C12.8151 7.30431 12.8984 7.10298 12.8984 6.89306C12.8984 6.68314 12.8151 6.48181 12.6666 6.33335Z" fill="#444546"/>
<path d="M9.5 0C7.62108 0 5.78435 0.557165 4.22209 1.60104C2.65982 2.64491 1.44218 4.12861 0.723149 5.86451C0.00411622 7.60041 -0.184015 9.51054 0.182544 11.3534C0.549104 13.1962 1.45389 14.8889 2.78249 16.2175C4.11109 17.5461 5.80383 18.4509 7.64665 18.8175C9.48947 19.184 11.3996 18.9959 13.1355 18.2769C14.8714 17.5578 16.3551 16.3402 17.399 14.7779C18.4428 13.2157 19 11.3789 19 9.5C18.9973 6.98128 17.9955 4.5665 16.2145 2.78549C14.4335 1.00449 12.0187 0.00272419 9.5 0V0ZM9.5 17.4167C7.93424 17.4167 6.40363 16.9524 5.10174 16.0825C3.79985 15.2126 2.78515 13.9762 2.18596 12.5296C1.58676 11.083 1.42999 9.49122 1.73545 7.95554C2.04092 6.41985 2.79491 5.00924 3.90208 3.90207C5.00924 2.79491 6.41986 2.04092 7.95554 1.73545C9.49122 1.42998 11.083 1.58676 12.5296 2.18595C13.9762 2.78515 15.2126 3.79985 16.0825 5.10174C16.9524 6.40363 17.4167 7.93423 17.4167 9.5C17.4144 11.5989 16.5796 13.6112 15.0954 15.0954C13.6112 16.5795 11.5989 17.4144 9.5 17.4167Z" fill="#444546"/>
</g>
<defs>
<clipPath id="clip0_194_2404">
<rect width="19" height="19" fill="white"/>
</clipPath>
</defs>
</svg>
