<svg width="15" height="12" viewBox="0 0 15 12" fill="none" xmlns="http://www.w3.org/2000/svg">
<path d="M7.5 3.8C8.04249 3.8 8.56276 4.03178 8.94635 4.44436C9.32995 4.85695 9.54545 5.41652 9.54545 6C9.54545 6.58348 9.32995 7.14306 8.94635 7.55564C8.56276 7.96822 8.04249 8.2 7.5 8.2C6.95751 8.2 6.43724 7.96822 6.05365 7.55564C5.67005 7.14306 5.45455 6.58348 5.45455 6C5.45455 5.41652 5.67005 4.85695 6.05365 4.44436C6.43724 4.03178 6.95751 3.8 7.5 3.8ZM7.5 0.5C10.9091 0.5 13.8205 2.78067 15 6C13.8205 9.21933 10.9091 11.5 7.5 11.5C4.09091 11.5 1.17955 9.21933 0 6C1.17955 2.78067 4.09091 0.5 7.5 0.5ZM1.48636 6C2.03745 7.21023 2.89316 8.22988 3.95624 8.94305C5.01931 9.65623 6.24709 10.0343 7.5 10.0343C8.75291 10.0343 9.98069 9.65623 11.0438 8.94305C12.1068 8.22988 12.9626 7.21023 13.5136 6C12.9626 4.78977 12.1068 3.77012 11.0438 3.05695C9.98069 2.34378 8.75291 1.9657 7.5 1.9657C6.24709 1.9657 5.01931 2.34378 3.95624 3.05695C2.89316 3.77012 2.03745 4.78977 1.48636 6Z" fill="#475467"/>
</svg>
