<svg width="15" height="14" viewBox="0 0 15 14" fill="none" xmlns="http://www.w3.org/2000/svg">
<path d="M7.5 4.8C8.04249 4.8 8.56276 5.03178 8.94635 5.44436C9.32995 5.85695 9.54545 6.41652 9.54545 7C9.54545 7.58348 9.32995 8.14306 8.94635 8.55564C8.56276 8.96822 8.04249 9.2 7.5 9.2C6.95751 9.2 6.43724 8.96822 6.05365 8.55564C5.67005 8.14306 5.45455 7.58348 5.45455 7C5.45455 6.41652 5.67005 5.85695 6.05365 5.44436C6.43724 5.03178 6.95751 4.8 7.5 4.8ZM7.5 1.5C10.9091 1.5 13.8205 3.78067 15 7C13.8205 10.2193 10.9091 12.5 7.5 12.5C4.09091 12.5 1.17955 10.2193 0 7C1.17955 3.78067 4.09091 1.5 7.5 1.5ZM1.48636 7C2.03745 8.21023 2.89316 9.22988 3.95624 9.94305C5.01931 10.6562 6.24709 11.0343 7.5 11.0343C8.75291 11.0343 9.98069 10.6562 11.0438 9.94305C12.1068 9.22988 12.9626 8.21023 13.5136 7C12.9626 5.78977 12.1068 4.77012 11.0438 4.05695C9.98069 3.34378 8.75291 2.9657 7.5 2.9657C6.24709 2.9657 5.01931 3.34378 3.95624 4.05695C2.89316 4.77012 2.03745 5.78977 1.48636 7Z" fill="#475467"/>
<path d="M2 1.5L13 12.5" stroke="#475467" stroke-width="1.7"/>
</svg>
