<svg width="23" height="23" viewBox="0 0 23 23" fill="none" xmlns="http://www.w3.org/2000/svg">
<path d="M19.9621 7.67623L13.685 2.65456C12.4583 1.67706 10.5417 1.66748 9.32457 2.64498L3.04749 7.67623C2.14665 8.39498 1.6004 9.83248 1.79207 10.9633L2.99957 18.1891C3.27749 19.8087 4.78207 21.0833 6.42082 21.0833H16.5792C18.1987 21.0833 19.7321 19.78 20.01 18.1796L21.2175 10.9537C21.39 9.83248 20.8437 8.39498 19.9621 7.67623ZM12.2187 17.25C12.2187 17.6429 11.8929 17.9687 11.5 17.9687C11.1071 17.9687 10.7812 17.6429 10.7812 17.25V14.375C10.7812 13.9821 11.1071 13.6562 11.5 13.6562C11.8929 13.6562 12.2187 13.9821 12.2187 14.375V17.25Z" fill="#007AFF"/>
</svg>
