<svg width="23" height="23" viewBox="0 0 23 23" fill="none" xmlns="http://www.w3.org/2000/svg">
<path d="M9.94999 3.42539L9.95076 3.42477C10.7964 2.74563 12.1934 2.74542 13.061 3.43615C13.0613 3.43635 13.0615 3.43655 13.0618 3.43674L19.3333 8.45395C19.6089 8.67983 19.8743 9.05866 20.051 9.5211C20.2274 9.98272 20.283 10.4429 20.23 10.7962L19.0247 18.0086C19.0246 18.0095 19.0244 18.0105 19.0242 18.0114C18.8271 19.1377 17.7053 20.0834 16.5792 20.0834H6.42082C5.2731 20.0834 4.18254 19.1641 3.9855 18.0221C3.98539 18.0215 3.98528 18.0208 3.98516 18.0201L2.77839 10.7986L2.77801 10.7963C2.71788 10.4416 2.76899 9.98181 2.94446 9.52167C3.11989 9.06163 3.38811 8.68387 3.67117 8.45803L3.67291 8.45664L9.94999 3.42539ZM11.5 18.9688C12.4452 18.9688 13.2187 18.1953 13.2187 17.2501V14.3751C13.2187 13.4299 12.4452 12.6563 11.5 12.6563C10.5548 12.6563 9.78124 13.4299 9.78124 14.3751V17.2501C9.78124 18.1953 10.5548 18.9688 11.5 18.9688Z" stroke="#828282" stroke-width="2"/>
</svg>
