<svg width="23" height="23" viewBox="0 0 23 23" fill="none" xmlns="http://www.w3.org/2000/svg">
<path d="M19.1714 21.0833H3.83803C3.30876 21.0833 2.8797 20.6542 2.8797 20.125V2.87496C2.8797 2.34569 3.30876 1.91663 3.83803 1.91663H19.1714C19.7007 1.91663 20.1297 2.34569 20.1297 2.87496V20.125C20.1297 20.6542 19.7007 21.0833 19.1714 21.0833ZM18.213 19.1666V3.83329H4.79637V19.1666H18.213ZM8.6297 5.74996V7.66663C8.6297 9.25444 9.91686 10.5416 11.5047 10.5416C13.0925 10.5416 14.3797 9.25444 14.3797 7.66663V5.74996H16.2964V7.66663C16.2964 10.313 14.1511 12.4583 11.5047 12.4583C8.85834 12.4583 6.71303 10.313 6.71303 7.66663V5.74996H7.67137H8.6297Z" fill="#828282"/>
</svg>
