<svg width="23" height="23" viewBox="0 0 23 23" fill="none" xmlns="http://www.w3.org/2000/svg">
<rect width="15" height="19" transform="translate(4 2)" fill="#007AFF"/>
<path d="M19.1714 21.0834H3.83803C3.30876 21.0834 2.8797 20.6544 2.8797 20.1251V2.87508C2.8797 2.34581 3.30876 1.91675 3.83803 1.91675H19.1714C19.7007 1.91675 20.1297 2.34581 20.1297 2.87508V20.1251C20.1297 20.6544 19.7007 21.0834 19.1714 21.0834ZM18.213 19.1667V3.83341H4.79637V19.1667H18.213ZM8.6297 5.75008V7.66675C8.6297 9.25456 9.91686 10.5417 11.5047 10.5417C13.0925 10.5417 14.3797 9.25456 14.3797 7.66675V5.75008H16.2964V7.66675C16.2964 10.3131 14.1511 12.4584 11.5047 12.4584C8.85834 12.4584 6.71303 10.3131 6.71303 7.66675V5.75008H7.67137H8.6297Z" fill="#007AFF"/>
<path d="M8.62971 7.66667V5.75H7.67138H6.71304V7.66667C6.71304 10.313 8.85835 12.4583 11.5047 12.4583C14.1511 12.4583 16.2964 10.313 16.2964 7.66667V5.75H14.3797V7.66667C14.3797 9.25448 13.0925 10.5417 11.5047 10.5417C9.91687 10.5417 8.62971 9.25448 8.62971 7.66667Z" fill="#007AFF"/>
<path d="M8.62971 7.66667V5.75H7.67138H6.71304V7.66667C6.71304 10.313 8.85835 12.4583 11.5047 12.4583C14.1511 12.4583 16.2964 10.313 16.2964 7.66667V5.75H14.3797V7.66667C14.3797 9.25448 13.0925 10.5417 11.5047 10.5417C9.91687 10.5417 8.62971 9.25448 8.62971 7.66667Z" fill="white"/>
</svg>
